<svg width="90" height="90" viewBox="0 0 90 90" fill="none" xmlns="http://www.w3.org/2000/svg">
<g clip-path="url(#clip0_4014_324)">
<rect width="90" height="90" transform="matrix(-1 0 0 1 90 0)" fill="#CEE2FC"/>
<path d="M23.0439 42.0016L23.5341 36.611L21.8999 31.6254L27.783 22.3095L39.3856 21.6562C42.9808 23.8621 50.2856 28.3228 50.7431 28.5189C51.2007 28.715 58.5055 33.2852 62.1006 35.5458L60.3848 42.0016L55.8908 48.3741L53.1127 54.3388L53.9298 59.4865L55.8908 62.2646L37.5063 80.5673L35.7904 76.2368C34.5648 74.3575 32.2443 69.8798 32.7672 67.0037C33.2737 64.2182 33.9232 62.7407 34.2111 62.3039C33.4643 63.3668 30.8107 64.9541 25.9037 63.0817C25.3317 62.9455 24.2042 62.0358 24.2695 59.4865C24.3349 56.9372 23.4797 55.2649 23.0439 54.7474L23.5341 52.7864L22.3902 50.662L23.5341 47.2302C22.5808 47.2842 21.1482 46.3141 23.0439 42.0016Z" fill="white"/>
<path d="M53.8891 37.0764C55.2101 36.2849 58.16 35.6527 59.3909 39.4561C60.3051 42.2808 57.8617 44.9901 55.053 46.724M49.7393 48.638C51.045 48.638 53.1343 47.9086 55.053 46.724M55.053 46.724L53.0961 53.3006C52.7999 54.9947 52.7766 59.1662 55.053 62.2995" stroke="black" stroke-width="1.5" stroke-linecap="round" stroke-linejoin="round"/>
<path d="M53.8691 41.0039L52.2836 44.0334M51.8174 42.4032L54.5217 42.6829" stroke="black" stroke-width="1.5" stroke-linecap="round" stroke-linejoin="round"/>
<path d="M26.38 38.1016C25.7739 39.1134 24.3799 41.1734 23.1115 42.6641C21.5261 44.5275 21.087 48.034 26.9706 47.4591" stroke="black" stroke-width="1.5" stroke-linecap="round" stroke-linejoin="round"/>
<path d="M27.2659 31.0624L28.2484 32.0199C28.4511 32.2174 28.8087 32.2394 29.0771 32.1493C29.8528 31.8891 31.3898 31.6645 32.6132 31.6645C34.253 31.6645 36.3457 32.5956 37.7529 33.2225C38.0854 33.3707 38.4556 33.1277 38.4556 32.7636C38.4556 32.6569 38.4229 32.5534 38.3589 32.468C37.5267 31.3582 35.5017 29.1644 33.7104 29.2361C32.0311 29.3033 29.1222 30.1091 27.4022 30.5526C27.1742 30.6114 27.0972 30.8981 27.2659 31.0624Z" fill="black"/>
<path d="M23.9993 31.1497C24.0445 31.2862 24.2463 31.7815 24.4414 32.2531C24.578 32.5834 24.3359 32.9475 23.9785 32.9475H22.9607C22.5413 32.299 21.5125 31.2658 22.0536 30.9875C22.3661 30.8268 23.9116 30.8851 23.9993 31.1497Z" fill="black"/>
<path d="M32.7714 68.5288C32.7426 66.7415 33.5756 64.1355 33.9956 63.0558L32.1229 63.5233C31.8257 63.8301 31.4085 64.5454 30.9759 65.4998C29.1493 66.2332 25.2296 67.8656 24.1636 68.5288C22.831 69.3578 19.3732 73.8247 18.2928 76.2373C17.4284 78.1673 15.7478 88.4221 15.0156 93.3082H89.5164L88.3662 86.7154C85.8123 77.7816 80.0236 75.1563 78.1868 74.2559C76.7174 73.5356 74.8854 72.179 74.1531 71.5908C73.6129 70.2822 72.2371 67.5066 71.0557 66.8727C69.8744 66.2388 67.3461 66.0324 66.2296 66.0083C65.9415 65.5185 63.6605 64.8198 62.556 64.5317C61.2355 63.5473 58.5079 61.5208 58.1621 61.2903C57.8164 61.0598 56.7695 60.9065 56.2893 60.8586C56.4334 61.2548 55.9292 61.831 54.8847 63.3077C53.8403 64.7843 47.7536 71.3031 45.5207 73.212C43.7343 74.739 39.023 78.9511 37.345 80.8113C37.0569 79.7428 36.2862 77.3321 35.5082 76.2373C34.5358 74.8687 32.8073 70.7629 32.7714 68.5288Z" fill="#569AFF"/>
<path d="M26.7657 23.3555C26.4525 23.8923 25.6247 25.2482 24.819 26.377C23.8118 27.788 22.1671 30.6074 21.9993 31.3459C21.865 31.9366 22.306 33.1338 22.6641 34.1519M23.3495 39.6745C23.2153 40.1221 23.1115 40.7989 23.1115 42.5174" stroke="black" stroke-width="1.5" stroke-linecap="round" stroke-linejoin="round"/>
<path d="M24.2545 50.1953L22.7019 50.4504C22.4793 51.3953 23.1809 52.6675 23.5595 53.1856L22.9801 54.8308L23.7448 56.059C26.0967 56.6648 28.3658 54.8931 29.3137 53.8217C29.3853 53.7407 29.4221 53.6361 29.4221 53.528C29.4221 53.2327 29.1483 53.012 28.8535 53.0297C28.5923 53.0454 28.3139 53.0336 28.1245 52.9538C27.7723 52.8055 25.3977 51.053 24.2545 50.1953Z" fill="#FED1D0"/>
<ellipse cx="24.4539" cy="36.4712" rx="1.00708" ry="1.78762" fill="black"/>
<ellipse cx="32.1087" cy="36.7492" rx="1.27083" ry="2.00702" fill="black"/>
<path opacity="0.5" d="M33.704 45.8118C32.629 45.197 32.4021 43.5717 33.1971 42.1816C33.9922 40.7915 35.7295 40.0763 36.8489 40.6041C38.3883 41.3299 38.6254 42.864 37.8303 44.2541C37.0353 45.6442 34.779 46.4267 33.704 45.8118Z" fill="#FED1D0"/>
<path d="M38.9688 60.4359C37.5079 61.2767 34.0825 63.0604 32.0683 63.4694C29.5505 63.9806 27.0327 63.9806 25.4474 63.0015C24.1792 62.2182 24.0176 59.1004 24.0954 57.6395L23.5358 55.9161C22.4043 54.8933 23.1268 53.5461 23.6294 53.0004C22.4615 51.8696 22.3859 50.6593 22.4941 50.1955C23.1986 49.0269 23.3746 47.6225 23.3745 47.0664" stroke="black" stroke-width="1.5" stroke-linecap="round" stroke-linejoin="round"/>
<path d="M33.9956 63.0558C33.5756 64.1355 32.7426 66.7415 32.7714 68.5288C32.8073 70.7629 34.5358 74.8687 35.5082 76.2373C36.2862 77.3321 37.0569 79.7428 37.345 80.8113C39.023 78.9511 43.7343 74.739 45.5207 73.212C47.7536 71.3031 53.8403 64.7843 54.8847 63.3077C55.9292 61.831 56.4334 61.2548 56.2893 60.8586M56.2893 60.8586C56.1741 60.5417 55.0408 60.7265 54.4886 60.8586M56.2893 60.8586C56.7695 60.9065 57.8164 61.0598 58.1621 61.2903C58.5079 61.5208 61.2355 63.5473 62.556 64.5317M62.556 64.5317C63.6605 64.8198 65.9415 65.5185 66.2296 66.0083C67.3461 66.0324 69.8744 66.2388 71.0557 66.8727C72.2371 67.5066 73.6129 70.2822 74.1531 71.5908M62.556 64.5317C60.7258 65.1687 56.8076 66.8599 55.7769 68.5288C54.7462 70.1977 51.1013 73.0423 49.4077 74.2559M74.1531 71.5908C74.8854 72.179 76.7174 73.5356 78.1868 74.2559C80.0236 75.1563 86.8123 76.7816 88.3662 90.7154M74.1531 71.5908C72.8939 71.4015 70.5211 71.0824 68.4663 70.9005M61.1632 72.7125C62.1116 71.7521 63.7256 70.615 65.8578 70.615C66.5283 70.615 67.5237 70.817 68.4663 70.9005M68.4663 70.9005C66.5923 72.187 61.9078 75.1275 58.1621 76.5969C53.4801 78.4337 50.7429 79.118 48.8341 80.0905C46.9253 81.0629 45.5207 81.6031 44.6563 81.9993C43.7919 82.3955 40.0233 84.0299 36.4578 83.1656M36.4578 85.5308C32.7714 83.1656 30.0771 78.2681 29.2416 75.3004C28.4752 72.5784 29.7838 68.1305 30.9759 65.4998M32.1229 63.5233C31.8257 63.8301 31.4085 64.5454 30.9759 65.4998M30.9759 65.4998C29.1493 66.2332 25.2296 67.8656 24.1636 68.5288C22.831 69.3578 19.3732 73.8247 18.2928 76.2373C17.4284 78.1673 15.7478 88.4221 15.0156 93.3082M32.1229 75.3004V87.576M42.0237 81.0629V91.7329" stroke="black" stroke-width="1.5" stroke-linecap="round" stroke-linejoin="round"/>
<path d="M55.3694 52.4763C55.1837 52.7307 53.7733 53.5789 53.0913 53.9711L54.9437 47.1951C56.3374 46.3818 59.25 43.8803 59.7502 40.3809C60.2503 36.8814 57.212 36.2947 55.6304 36.4388C52.9896 33.4918 49.6216 38.1993 48.703 39.0413C47.9682 39.7149 46.3046 40.215 45.5647 40.3809C44.9906 38.0845 45.3351 35.5585 45.0289 34.219C44.7839 33.1474 43.0132 31.221 42.1584 30.3918C37.6576 29.402 36.2262 26.05 36.0731 24.4978L34.9632 25.4529C33.4017 24.2268 33.4196 22.4427 33.6237 21.7039C27.6915 25.4546 27.9976 21.9718 27.5001 22.5459C27.1021 23.0052 24.349 26.9983 23.0222 28.9374C22.7159 28.2102 22.18 26.6028 22.4864 25.9904C22.8694 25.225 24.5914 23.2731 24.6296 21.4743C24.6679 19.6755 23.558 18.6038 22.7543 19.4841C22.1113 20.1883 22.0525 22.1759 22.1034 23.0817C19.6231 19.6525 21.0699 17.1877 22.1034 16.384C20.45 11.6076 25.1399 13.9856 27.6914 15.7717C28.4569 14.0494 30.2556 13.7815 32.8199 12.0975C34.8713 10.7503 38.1653 10.7444 39.5559 10.9098C43.4214 8.1925 47.0955 10.832 48.2054 11.7505C49.3153 12.6691 52.645 17.5672 57.3908 18.8685C62.1366 20.1698 64.2016 23.9603 64.2016 25.4529C64.2016 26.647 65.1279 30.0678 65.591 31.629C65.6194 32.8194 65.6591 35.3647 65.591 36.0226C65.523 36.6805 64.6364 38.0363 64.2016 38.6319C64.6836 41.4392 61.9047 44.1313 61.0256 44.7551C60.1466 45.379 57.6228 47.0822 56.9139 48.2731C56.205 49.4641 55.6015 52.1583 55.3694 52.4763Z" fill="black" stroke="black" stroke-width="1.5" stroke-linecap="round" stroke-linejoin="round"/>
<path d="M52.8 16.56C53.4889 16.113 54.6025 14.2501 52 12.0766C53.0206 11.9492 54.5049 12.1728 55.2091 14.163C55.5536 13.5251 56.5048 12.3004 55.9231 10.7695C56.8033 11.433 57.6878 12.735 56.7692 15.1538C57.9302 14.7966 60.7893 14.7755 61.9834 16.7657C63.1775 18.7559 62.7361 20.8353 62.3661 21.6263C62.9785 20.2995 61.9834 14.4622 55.5153 17.9228" stroke="black" stroke-width="1.5" stroke-linecap="round" stroke-linejoin="round"/>
<path d="M51.2671 12.0577C53.8696 14.2312 53.1424 15.6686 52.4535 16.1156L55.8462 18.1154C60.5508 15.5871 62.215 19.3939 61.6027 20.7206L62.3661 21.6266C62.7361 20.8356 63.1775 18.7562 61.9834 16.766C60.7893 14.7758 58.1689 14.9927 57.008 15.3499C57.9265 12.9311 56.3956 10.9994 55.5154 10.3359C56.0971 11.8668 55.5536 13.5254 55.2092 14.1633C54.505 12.1731 52.2877 11.9303 51.2671 12.0577Z" fill="black"/>
<path d="M64.2416 24.8377C66.3542 25.1948 67.8085 27.6747 65.2366 30.4622M31.2115 12.709C29.1321 12.1094 25.6246 11.2739 24.3999 13.8152" stroke="black" stroke-width="1.5" stroke-linecap="round" stroke-linejoin="round"/>
<path d="M34.7822 11.793C34.0185 11.9284 31.8983 11.5523 29.5269 8.96484" stroke="black" stroke-width="1.5" stroke-linecap="round" stroke-linejoin="round"/>
<path d="M35.2695 10.7504C36.565 8.85419 42.0002 6.80528 46.5509 10.7499" stroke="black" stroke-width="1.5" stroke-linecap="round" stroke-linejoin="round"/>
<path opacity="0.2" d="M38.7617 71.1838L33.7377 63.3971C33.2613 63.3971 33.4201 62.857 37.8666 60.6968C42.1484 58.6167 45.9885 54.3078 47.5434 52.1949C47.6513 52.0482 47.8208 51.9609 48.0029 51.9609C48.3982 51.9609 48.6701 52.3581 48.527 52.7266L47.3216 55.8312C47.2814 55.9346 47.2244 56.0306 47.1527 56.1153L42.0203 62.1799L39.665 71.0412C39.5535 71.4607 38.997 71.5486 38.7617 71.1838Z" fill="black"/>
</g>
<defs>
<clipPath id="clip0_4014_324">
<rect width="90" height="90" fill="white" transform="matrix(-1 0 0 1 90 0)"/>
</clipPath>
</defs>
</svg>
